<svg width="335" height="264" viewBox="0 0 335 264" fill="none" xmlns="http://www.w3.org/2000/svg">
<g clip-path="url(#clip0_42_305)">
<path d="M304.124 0.172516H0.129807V195.059H304.124V0.172516Z" fill="#E6E6E6"/>
<path d="M295.431 24.6161H8.82243V183.53H295.431V24.6161Z" fill="white"/>
<path d="M303.994 0H0V12.9277H303.994V0Z" fill="#70CDDC"/>
<path d="M9.59722 9.0054C10.9192 9.0054 11.9909 7.93265 11.9909 6.60934C11.9909 5.28604 10.9192 4.21329 9.59722 4.21329C8.27524 4.21329 7.20357 5.28604 7.20357 6.60934C7.20357 7.93265 8.27524 9.0054 9.59722 9.0054Z" fill="white"/>
<path d="M18.6829 9.0054C20.0049 9.0054 21.0766 7.93265 21.0766 6.60934C21.0766 5.28604 20.0049 4.21329 18.6829 4.21329C17.361 4.21329 16.2893 5.28604 16.2893 6.60934C16.2893 7.93265 17.361 9.0054 18.6829 9.0054Z" fill="white"/>
<path d="M27.7687 9.0054C29.0906 9.0054 30.1623 7.93265 30.1623 6.60934C30.1623 5.28604 29.0906 4.21329 27.7687 4.21329C26.4467 4.21329 25.375 5.28604 25.375 6.60934C25.375 7.93265 26.4467 9.0054 27.7687 9.0054Z" fill="white"/>
<path d="M108.51 41.1047H34.8648V167.041H108.51V41.1047Z" fill="#E6E6E6"/>
<path d="M182.593 41.1047H121.222V75.7701H182.593V41.1047Z" fill="#70CDDC"/>
<path d="M182.593 85.4237H121.222V122.722H182.593V85.4237Z" fill="#E6E6E6"/>
<path d="M182.593 132.376H121.222V167.041H182.593V132.376Z" fill="#E6E6E6"/>
<path d="M269.389 41.1047H195.744V95.987H269.389V41.1047Z" fill="#E6E6E6"/>
<path d="M269.389 112.159H195.744V167.041H269.389V112.159Z" fill="#E6E6E6"/>
<path d="M241.018 99.9298V88.1144C241.018 83.9153 242.685 79.8883 245.651 76.9191C248.617 73.9499 252.64 72.2818 256.835 72.2818C261.03 72.2818 265.053 73.9499 268.019 76.9191C270.985 79.8883 272.652 83.9153 272.652 88.1144V99.9298C272.651 100.494 272.427 101.034 272.029 101.433C271.63 101.832 271.09 102.056 270.527 102.057H243.143C242.58 102.056 242.04 101.832 241.641 101.433C241.243 101.034 241.019 100.494 241.018 99.9298Z" fill="#2F2E41"/>
<path d="M280.223 253.693L274.644 255.239L266.034 234.435L274.268 232.154L280.223 253.693Z" fill="#FFB8B8"/>
<path d="M270.218 254.747L280.977 251.767L282.852 258.548L265.319 263.405C265.073 262.514 265.004 261.584 265.117 260.667C265.23 259.75 265.522 258.864 265.977 258.06C266.432 257.256 267.041 256.55 267.769 255.982C268.496 255.413 269.329 254.994 270.218 254.747Z" fill="#2F2E41"/>
<path d="M222.061 257.989H216.273L213.519 235.64H222.062L222.061 257.989Z" fill="#FFB8B8"/>
<path d="M212.138 256.333H223.302V263.369H205.11C205.11 262.445 205.291 261.53 205.645 260.676C205.998 259.823 206.516 259.047 207.168 258.394C207.821 257.741 208.596 257.222 209.449 256.869C210.301 256.515 211.215 256.333 212.138 256.333Z" fill="#2F2E41"/>
<path d="M215.082 133.087C215.495 133.646 216.025 134.107 216.636 134.437C217.246 134.768 217.921 134.961 218.614 135.003C219.307 135.044 220 134.933 220.646 134.677C221.291 134.421 221.872 134.026 222.349 133.521L237.736 140.449L236.336 131.785L221.939 126.535C221.038 125.79 219.895 125.401 218.728 125.443C217.56 125.485 216.448 125.954 215.603 126.762C214.757 127.57 214.238 128.66 214.141 129.826C214.045 130.992 214.38 132.152 215.082 133.087Z" fill="#FFB8B8"/>
<path d="M247.052 185.188C242.218 185.188 237.213 184.467 233.007 182.323C230.774 181.207 228.795 179.642 227.193 177.726C225.592 175.809 224.403 173.583 223.701 171.186C221.51 164.238 224.273 157.413 226.946 150.813C228.602 146.724 230.166 142.861 230.572 139.053L230.714 137.701C231.346 131.629 231.892 126.385 234.914 124.418C236.481 123.399 238.587 123.341 241.354 124.24L267.343 132.691L266.388 182.075L266.23 182.128C266.094 182.173 256.932 185.188 247.052 185.188Z" fill="#2F2E41"/>
<path d="M240.9 108.866C240.9 108.866 253.648 105.085 263.563 106.503C263.563 106.503 257.897 137.696 259.786 148.093C261.674 158.491 226.972 152.11 234.054 142.185L236.415 130.37C236.415 130.37 231.693 125.644 235.943 119.973L240.9 108.866Z" fill="#70CDDC"/>
<path d="M234.63 184.251L218.919 181.303L224.404 139.048C224.773 137.868 233.27 111.096 237.129 109.647C239.931 108.66 242.797 107.863 245.706 107.262L246.265 107.15L243.115 111.88L230.573 141.964L234.63 184.251Z" fill="#2F2E41"/>
<path d="M226.444 252.811L206.144 249.424L217.536 202.86L234.487 139.181L234.655 140.312C234.668 140.396 236.252 148.715 259.749 145.024L259.956 144.992L260.013 145.193L288.413 245.642L265.283 249.501L244.186 176.214L226.444 252.811Z" fill="#2F2E41"/>
<path d="M254.58 192.159L254.592 191.802C254.607 191.405 256.003 151.926 255.537 136.048C255.069 120.117 260.221 106.32 260.273 106.183L260.315 106.072L260.429 106.039C267.096 104.133 272.879 109.823 272.937 109.881L273.018 109.962L271.119 125.641L279.248 182.658L254.58 192.159Z" fill="#2F2E41"/>
<path d="M253.585 101.782C259.989 101.782 265.181 96.5845 265.181 90.1736C265.181 83.7627 259.989 78.5657 253.585 78.5657C247.18 78.5657 241.989 83.7627 241.989 90.1736C241.989 96.5845 247.18 101.782 253.585 101.782Z" fill="#FFB8B8"/>
<path d="M237.276 89.0596C237.28 85.7391 238.6 82.5557 240.945 80.2078C243.291 77.8598 246.471 76.5391 249.788 76.5353H252.149C255.466 76.5391 258.646 77.8598 260.992 80.2078C263.338 82.5557 264.657 85.7392 264.661 89.0596V89.296H259.672L257.97 84.5264L257.63 89.296H255.051L254.193 86.8895L254.021 89.296H237.276V89.0596Z" fill="#2F2E41"/>
<path d="M252.444 103.385C252.209 103.068 252.069 102.69 252.04 102.297C252.011 101.903 252.093 101.509 252.277 101.161C254.779 96.3975 258.282 87.5965 253.632 82.1688L253.298 81.7788H266.796V102.063L254.534 104.229C254.41 104.251 254.284 104.262 254.158 104.262C253.824 104.262 253.494 104.183 253.195 104.03C252.897 103.878 252.64 103.657 252.444 103.385Z" fill="#2F2E41"/>
<path d="M198.101 19.6355C188.657 11.6579 177.099 6.60018 164.835 5.07784C152.571 3.55549 140.13 5.63414 129.024 11.0608C117.919 16.4875 108.629 25.0283 102.284 35.6438C95.9397 46.2593 92.8143 58.4919 93.2884 70.8531C93.7624 83.2143 97.8155 95.1711 104.954 105.268C112.093 115.366 122.01 123.168 133.499 127.727C144.987 132.285 157.551 133.403 169.662 130.944C181.773 128.485 192.91 122.555 201.716 113.876L279.911 179.923C281.101 180.93 282.641 181.423 284.194 181.292C285.746 181.162 287.184 180.42 288.189 179.229C289.195 178.038 289.687 176.496 289.557 174.942C289.427 173.388 288.686 171.949 287.496 170.942L287.488 170.935L209.292 104.888C218.376 91.8376 222.264 75.862 220.194 60.0918C218.124 44.3216 210.245 29.8937 198.101 19.6355ZM193.06 98.528C186.969 105.755 178.873 111.011 169.797 113.632C160.721 116.253 151.072 116.121 142.071 113.253C133.07 110.385 125.12 104.909 119.228 97.5186C113.336 90.1281 109.765 81.1544 108.968 71.7325C108.17 62.3106 110.182 52.8636 114.748 44.5861C119.314 36.3086 126.23 29.5724 134.621 25.2294C143.012 20.8863 152.501 19.1314 161.888 20.1867C171.275 21.2419 180.139 25.0599 187.358 31.1577C192.152 35.2066 196.102 40.1608 198.983 45.7377C201.864 51.3146 203.619 57.4049 204.148 63.6608C204.678 69.9167 203.971 76.2158 202.069 82.1983C200.166 88.1808 197.105 93.7297 193.06 98.528Z" fill="#3F3D56"/>
<path opacity="0.3" d="M125.757 104.236C116.595 96.4959 110.675 85.5902 109.174 73.6838C107.673 61.7774 110.699 49.7412 117.653 39.9651C116.74 40.8857 115.857 41.8498 115.004 42.8575C110.96 47.6559 107.899 53.2047 105.996 59.1873C104.094 65.1698 103.387 71.4688 103.917 77.7248C104.446 83.9807 106.201 90.0709 109.082 95.6478C111.963 101.225 115.913 106.179 120.706 110.228C125.5 114.277 131.043 117.341 137.02 119.245C142.996 121.15 149.289 121.857 155.539 121.327C161.788 120.797 167.872 119.04 173.444 116.156C179.015 113.273 183.964 109.319 188.009 104.52C188.86 103.511 189.661 102.478 190.412 101.42C181.955 109.926 170.611 114.938 158.634 115.459C146.656 115.981 134.921 111.974 125.757 104.236Z" fill="black"/>
<path d="M257.308 153.381C257.982 153.546 258.684 153.561 259.365 153.425C260.046 153.289 260.688 153.005 261.248 152.593C261.807 152.182 262.269 151.653 262.602 151.043C262.935 150.433 263.13 149.758 263.174 149.064L279.431 144.547L272.823 138.78L258.398 143.954C257.229 143.957 256.102 144.389 255.231 145.169C254.359 145.948 253.804 147.021 253.67 148.183C253.535 149.345 253.832 150.516 254.502 151.474C255.173 152.432 256.171 153.11 257.308 153.381Z" fill="#FFB8B8"/>
<path d="M264.065 150.99L263.076 141.582L276.656 134.082L267.802 123.353L269.247 111.302L272.844 109.758L272.956 109.902C274.653 112.086 289.531 131.303 289.531 133.678C289.531 136.118 286.684 143.283 282.79 145.233C279.034 147.113 264.929 150.767 264.33 150.921L264.065 150.99Z" fill="#2F2E41"/>
<path d="M334.528 264H154.642C154.517 264 154.397 263.95 154.308 263.862C154.219 263.773 154.17 263.653 154.17 263.527C154.17 263.402 154.219 263.282 154.308 263.193C154.397 263.105 154.517 263.055 154.642 263.055H334.528C334.653 263.055 334.773 263.105 334.862 263.193C334.95 263.282 335 263.402 335 263.527C335 263.653 334.95 263.773 334.862 263.862C334.773 263.95 334.653 264 334.528 264Z" fill="#CCCCCC"/>
</g>
<defs>
<clipPath id="clip0_42_305">
<rect width="335" height="264" fill="white"/>
</clipPath>
</defs>
</svg>
