<svg width="321" height="192" viewBox="0 0 321 192" fill="none" xmlns="http://www.w3.org/2000/svg">
<g clip-path="url(#clip0_29_129)">
<path d="M245.765 189.829C241.656 186.355 239.159 180.866 239.814 175.524C240.469 170.181 244.523 165.269 249.783 164.135C255.042 163 261.038 166.141 262.635 171.281C263.514 161.371 264.527 151.046 269.794 142.607C274.562 134.965 282.821 129.497 291.773 128.519C300.724 127.541 310.148 131.235 315.731 138.304C321.313 145.372 322.68 155.648 318.77 163.762C315.89 169.74 310.583 174.189 305.024 177.809C287.058 189.405 265.511 194.122 244.346 191.089L245.765 189.829Z" fill="#F2F2F2"/>
<path d="M306.879 131.44C299.493 137.459 292.718 144.19 286.65 151.537C277.154 162.995 269.47 175.841 263.866 189.629C263.455 190.635 265.088 191.073 265.494 190.078C274.664 167.67 289.303 147.92 308.073 132.635C308.916 131.948 307.715 130.759 306.879 131.44Z" fill="white"/>
<path d="M103.335 188.885C108.98 184.113 112.408 176.575 111.509 169.237C110.61 161.898 105.041 155.152 97.817 153.594C90.5931 152.035 82.3583 156.349 80.1642 163.409C78.9566 149.798 77.5651 135.616 70.3318 124.025C63.7822 113.53 52.4382 106.02 40.1439 104.676C27.8495 103.332 14.9052 108.407 7.23765 118.115C-0.42988 127.823 -2.30724 141.937 3.0629 153.083C7.01889 161.293 14.3072 167.404 21.9436 172.375C46.3062 188.235 76.528 194.849 105.285 190.616" fill="#F2F2F2"/>
<path d="M19.3953 108.688C29.5396 116.955 38.846 126.2 47.1798 136.291C55.5149 146.371 62.8531 157.236 69.0912 168.734C72.5781 175.184 75.7104 181.819 78.4742 188.61C79.0377 189.992 76.7954 190.593 76.2381 189.227C71.3428 177.254 65.2863 165.79 58.1555 154.998C51.0593 144.246 42.9374 134.208 33.9038 125.025C28.7944 119.834 23.4035 114.928 17.7556 110.329C16.5979 109.385 18.2472 107.753 19.3953 108.688Z" fill="white"/>
<path d="M230.419 191.58H95.7465V53.3396C95.7465 23.928 119.664 0 149.062 0H177.104C206.502 0 230.419 23.928 230.419 53.3396V191.58Z" fill="#F2F2F2"/>
<path d="M202.378 191.58H95.7465V53.3396C95.7171 42.0698 99.2842 31.0847 105.928 21.9839C106.173 21.6499 106.418 21.3203 106.67 20.9942C109.883 16.7773 113.708 13.0635 118.017 9.97541C118.26 9.79823 118.505 9.62412 118.753 9.45001C122.358 6.95372 126.258 4.91306 130.365 3.37446C130.609 3.282 130.857 3.18935 131.105 3.10049C134.819 1.77459 138.668 0.866363 142.583 0.392564C142.826 0.359398 143.075 0.333444 143.324 0.307491C147.139 -0.100574 150.986 -0.100574 154.801 0.307491C155.049 0.333444 155.298 0.359394 155.544 0.392919C159.458 0.866749 163.306 1.77487 167.019 3.10051C167.267 3.18937 167.516 3.28201 167.76 3.37465C171.816 4.89384 175.67 6.90405 179.237 9.36044C179.485 9.53077 179.733 9.70488 179.978 9.87899C182.393 11.6039 184.662 13.5254 186.76 15.6242C188.444 17.3076 190.012 19.102 191.455 20.9953C191.706 21.3203 191.951 21.65 192.195 21.9834C198.84 31.0843 202.407 42.0695 202.378 53.3396V191.58Z" fill="#CCCCCC"/>
<path d="M193.707 129.75C196.967 129.75 199.61 127.106 199.61 123.844C199.61 120.582 196.967 117.938 193.707 117.938C190.447 117.938 187.803 120.582 187.803 123.844C187.803 127.106 190.447 129.75 193.707 129.75Z" fill="#70CDDC"/>
<path d="M219.387 187.439H214.863L212.711 169.984L219.387 169.984L219.387 187.439Z" fill="#FFB8B8"/>
<path d="M211.632 186.146H220.356V191.641H206.139C206.139 190.92 206.281 190.205 206.557 189.538C206.833 188.872 207.238 188.266 207.748 187.756C208.258 187.245 208.863 186.84 209.53 186.564C210.196 186.288 210.911 186.146 211.632 186.146Z" fill="#2F2E41"/>
<path d="M241.893 187.439H237.37L235.218 169.984L241.894 169.984L241.893 187.439Z" fill="#FFB8B8"/>
<path d="M234.139 186.146H242.862V191.641H228.646C228.646 190.92 228.788 190.205 229.064 189.538C229.34 188.872 229.745 188.266 230.255 187.756C230.765 187.245 231.37 186.84 232.037 186.564C232.703 186.288 233.417 186.146 234.139 186.146Z" fill="#2F2E41"/>
<path d="M196.695 125.014C196.369 124.534 196.153 123.989 196.061 123.417C195.969 122.844 196.003 122.259 196.162 121.701C196.321 121.144 196.6 120.628 196.979 120.19C197.359 119.751 197.83 119.402 198.359 119.166L213.736 76.7647L221.302 80.8958L203.745 121.416C204.083 122.331 204.073 123.339 203.718 124.248C203.363 125.157 202.686 125.904 201.817 126.348C200.948 126.791 199.947 126.901 199.003 126.655C198.059 126.409 197.237 125.825 196.695 125.014Z" fill="#FFB8B8"/>
<path d="M239.583 132.981C239.08 132.693 238.647 132.298 238.313 131.824C237.98 131.35 237.754 130.808 237.652 130.238C237.55 129.667 237.575 129.081 237.724 128.521C237.873 127.96 238.143 127.44 238.515 126.995L233.752 82.1421L242.363 82.5357L244.342 126.655C245.047 127.329 245.48 128.239 245.559 129.212C245.638 130.185 245.358 131.153 244.771 131.933C244.185 132.713 243.332 133.25 242.376 133.443C241.42 133.637 240.426 133.472 239.583 132.981Z" fill="#FFB8B8"/>
<path d="M225.846 68.911C230.851 68.911 234.908 64.8519 234.908 59.8447C234.908 54.8375 230.851 50.7784 225.846 50.7784C220.841 50.7784 216.784 54.8375 216.784 59.8447C216.784 64.8519 220.841 68.911 225.846 68.911Z" fill="#FFB8B8"/>
<path d="M239.525 122.78H212.204L212.237 122.568C212.286 122.25 217.106 90.6602 213.551 80.3256C213.194 79.31 213.226 78.1983 213.639 77.2045C214.053 76.2106 214.819 75.4049 215.791 74.9424C220.872 72.5484 230.626 69.6006 238.858 76.7545C240.07 77.8246 241.016 79.1619 241.622 80.6608C242.227 82.1597 242.476 83.779 242.349 85.3907L239.525 122.78Z" fill="#70CDDC"/>
<path d="M217.451 95.3286L205.151 92.8321L210.917 79.1632C211.262 77.8393 212.118 76.7064 213.297 76.0129C214.475 75.3194 215.881 75.122 217.205 75.464C218.529 75.806 219.664 76.6594 220.36 77.8372C221.056 79.0149 221.257 80.4207 220.918 81.7462L217.451 95.3286Z" fill="#70CDDC"/>
<path d="M233.205 99.9641L232.465 83.0056C231.905 79.8177 233.729 76.8041 236.534 76.3115C239.34 75.8207 242.08 78.0317 242.644 81.243L245.423 97.089L233.205 99.9641Z" fill="#70CDDC"/>
<path d="M238.616 120.75C243.012 137.5 243.492 158.796 242.306 182.026L236.402 181.288L225.702 136.992L219.799 182.026L213.157 181.657C211.173 157.283 209.241 136.359 212.419 122.596L238.616 120.75Z" fill="#2F2E41"/>
<path d="M231.817 66.8514C230.126 68.653 226.987 67.6859 226.766 65.2245C226.749 65.0334 226.75 64.8411 226.77 64.6503C226.884 63.56 227.514 62.5702 227.363 61.419C227.329 61.1325 227.222 60.8595 227.053 60.6258C225.706 58.821 222.543 61.4331 221.272 59.7992C220.492 58.7974 221.409 57.22 220.81 56.1003C220.021 54.6225 217.682 55.3515 216.215 54.5421C214.583 53.6417 214.681 51.1368 215.755 49.6132C217.065 47.7552 219.362 46.7637 221.63 46.6208C223.899 46.4779 226.151 47.0914 228.269 47.917C230.675 48.8551 233.061 50.1516 234.542 52.2682C236.342 54.8422 236.515 58.3027 235.615 61.3126C235.067 63.1435 233.198 65.3801 231.817 66.8514Z" fill="#2F2E41"/>
<path d="M309.924 191.817H37.5192C37.4029 191.817 37.2915 191.77 37.2094 191.688C37.1273 191.606 37.0812 191.494 37.0812 191.378C37.0812 191.261 37.1273 191.15 37.2094 191.067C37.2915 190.985 37.4029 190.939 37.5192 190.938H309.924C310.041 190.939 310.152 190.985 310.234 191.067C310.316 191.15 310.362 191.261 310.362 191.378C310.362 191.494 310.316 191.606 310.234 191.688C310.152 191.77 310.041 191.817 309.924 191.817Z" fill="#3F3D56"/>
<path d="M173.045 151.529H125.079C124.448 151.532 123.84 151.285 123.391 150.841C122.941 150.397 122.686 149.793 122.681 149.161V42.0498C122.686 41.4179 122.941 40.8136 123.391 40.3697C123.84 39.9257 124.448 39.6783 125.079 39.6817H173.045C173.677 39.6783 174.284 39.9257 174.733 40.3697C175.183 40.8136 175.438 41.4179 175.443 42.0498V149.161C175.438 149.793 175.183 150.397 174.733 150.841C174.284 151.285 173.677 151.532 173.045 151.529Z" fill="white"/>
<path d="M175.443 74.3394H122.681V75.0777H175.443V74.3394Z" fill="#CCCCCC"/>
<path d="M175.628 116.461H122.865V117.2H175.628V116.461Z" fill="#CCCCCC"/>
<path d="M140.022 39.6817H139.284V151.898H140.022V39.6817Z" fill="#CCCCCC"/>
<path d="M158.471 39.6817H157.733V151.898H158.471V39.6817Z" fill="#CCCCCC"/>
</g>
<defs>
<clipPath id="clip0_29_129">
<rect width="321" height="192" fill="white"/>
</clipPath>
</defs>
</svg>
